<?xml version="1.0" encoding="UTF-8"?>
<svg id="Layer_2" xmlns="http://www.w3.org/2000/svg" viewBox="0 0 971 971">
  <defs>
    <style>
      .cls-1 {
        fill: #007f5f;
      }
    </style>
  </defs>
  <g id="Layer_1-2" data-name="Layer_1">
    <path class="cls-1" d="M837.82,133.18C755.54,50.91,641.91,0,516.34,0,373.75,0,244.67,57.78,151.25,151.25,57.78,244.67,0,373.75,0,516.34c0,251.1,203.56,454.66,454.66,454.66h316.28c-10.37-124.39-18.85-191.97-163.5-222.54h-163.89c-126.62,0-229.23-102.61-229.23-229.23,0-82.97,33.63-158.12,88-212.53,54.41-54.37,129.55-88,212.53-88,65.96,0,125.66,26.72,168.88,69.98,43.26,43.21,69.98,102.92,69.98,168.88v220.01c30.92,117,74.71,218.04,208.28,289.64,5.47-3.76,9.01-10.06,9.01-17.23v-495.3c0-125.57-50.91-239.21-133.18-321.48Z"/>
  </g>
</svg>