<?xml version="1.0" encoding="UTF-8"?>
<svg id="Layer_2" xmlns="http://www.w3.org/2000/svg" viewBox="0 0 946.58 200.2">
  <defs>
    <style>
      .cls-1 {
        fill: #f4a261;
      }

      .cls-2 {
        fill: none;
        stroke: #007f5f;
        stroke-miterlimit: 10;
        stroke-width: 10px;
      }

      .cls-3 {
        fill: #007f5f;
      }
    </style>
  </defs>
  <g id="Layer_1-2" data-name="Layer_1">
    <g>
      <path class="cls-2" d="M743.68,109.94c0,38.27-33.99,69.29-75.92,69.29s-75.92-31.02-75.92-69.29"/>
      <g>
        <path class="cls-3" d="M113.5,43.66c0-3.18.23-6.49.68-9.94.45-3.44,1.47-6.77,3.04-9.97s4.02-6.08,7.34-8.62c3.32-2.54,7.78-4.57,13.38-6.09,5.61-1.52,12.73-2.28,21.37-2.28l-.07,21.37c-2.15,0-4.49.14-7.01.43-2.53.28-4.92.93-7.16,1.92-2.24,1-4.09,2.54-5.55,4.63-1.46,2.09-2.18,4.94-2.18,8.55v.64h17.75l-.72,18.94h-17.03v72.15h-23.83V63.25h-10.45v-18.94h10.45v-.64Z"/>
        <path class="cls-3" d="M207.34,41.24c8.78,0,16.81,2.22,24.08,6.66,7.28,4.44,13.06,10.38,17.36,17.81,4.29,7.43,6.44,15.66,6.44,24.68s-2.15,17.32-6.44,24.75c-4.29,7.43-10.08,13.37-17.36,17.81-7.28,4.44-15.31,6.66-24.08,6.66s-16.88-2.22-24.16-6.66c-7.28-4.44-13.06-10.37-17.36-17.81-4.29-7.43-6.44-15.68-6.44-24.75s2.15-17.25,6.44-24.68c4.29-7.43,10.08-13.37,17.36-17.81,7.28-4.44,15.33-6.66,24.16-6.66ZM232.68,90.74c0-7.5-2.48-13.9-7.44-19.19-4.96-5.29-10.93-7.94-17.89-7.94s-13,2.65-17.97,7.94c-4.96,5.29-7.44,11.69-7.44,19.19s2.48,13.82,7.44,19.09c4.96,5.27,10.95,7.91,17.97,7.91s12.93-2.64,17.89-7.91c4.96-5.27,7.44-11.63,7.44-19.09Z"/>
        <path class="cls-3" d="M314.77,41.1c10.83,0,19.62,3.69,26.38,11.07,6.75,7.38,10.13,17.94,10.13,31.66v51.56h-23.62v-52.42c0-5.32-1.9-9.86-5.69-13.64-3.79-3.77-8.36-5.66-13.71-5.66s-9.91,1.89-13.71,5.66c-3.79,3.77-5.69,8.32-5.69,13.64v52.42h-23.55V44.3h23.55v5.27c5.77-5.65,14.41-8.48,25.91-8.48Z"/>
        <path class="cls-3" d="M365.66,44.37h23.55v94.58c0,7.74-1.9,14.79-5.69,21.15-3.79,6.36-8.89,11.43-15.28,15.21-6.39,3.77-13.46,5.66-21.19,5.66-3.39,0-6.66-.4-9.81-1.21v-23.79c3.15,1.04,6.42,1.57,9.81,1.57,5.11,0,9.48-1.82,13.13-5.45s5.48-8.01,5.48-13.14V44.37ZM390.86,23.5c0,3.7-1.31,6.86-3.94,9.47-2.63,2.61-5.8,3.92-9.52,3.92s-6.9-1.31-9.52-3.92c-2.63-2.61-3.94-5.77-3.94-9.47s1.31-6.86,3.94-9.47c2.62-2.61,5.8-3.92,9.52-3.92s6.89,1.31,9.52,3.92c2.62,2.61,3.94,5.77,3.94,9.47Z"/>
        <path class="cls-3" d="M473.17,135.82v-5.84c-6.63,6.36-16.03,9.54-28.2,9.54-13.22,0-24.13-4.78-32.75-14.35-8.61-9.57-12.92-21.14-12.92-34.72s4.31-25.08,12.92-34.65c8.61-9.57,19.53-14.35,32.75-14.35,12.17,0,21.57,3.18,28.2,9.54v-6.69h23.19v91.52h-23.19ZM473.1,90.74c0-7.5-2.47-13.9-7.41-19.19-4.94-5.29-10.92-7.94-17.93-7.94s-13,2.65-17.97,7.94c-4.96,5.29-7.44,11.69-7.44,19.19s2.48,13.82,7.44,19.09,10.95,7.91,17.97,7.91,12.99-2.64,17.93-7.91,7.41-11.63,7.41-19.09Z"/>
        <path class="cls-1" d="M580.32,135.82v-5.84c-6.63,6.36-16.03,9.54-28.2,9.54-13.22,0-24.13-4.78-32.75-14.35-8.61-9.57-12.92-21.14-12.92-34.72s4.31-25.08,12.92-34.65c8.61-9.57,19.53-14.35,32.75-14.35,12.17,0,21.57,3.18,28.2,9.54V6.77h23.19v129.05h-23.19ZM580.97,90.74c0-7.5-2.47-13.9-7.41-19.19-4.94-5.29-10.92-7.94-17.93-7.94s-13,2.65-17.97,7.94c-4.96,5.29-7.44,11.69-7.44,19.19s2.48,13.82,7.44,19.09c4.96,5.27,10.95,7.91,17.97,7.91s12.99-2.64,17.93-7.91,7.41-11.63,7.41-19.09Z"/>
        <path class="cls-1" d="M803.71,135.82v-5.84c-6.63,6.36-16.03,9.54-28.2,9.54-13.22,0-24.13-4.78-32.75-14.35-8.61-9.57-12.92-21.14-12.92-34.72s4.31-25.08,12.92-34.65c8.61-9.57,19.53-14.35,32.75-14.35,12.17,0,21.57,3.18,28.2,9.54v-6.69h23.19v91.52h-23.19ZM803.64,90.74c0-7.5-2.47-13.9-7.41-19.19-4.94-5.29-10.92-7.94-17.93-7.94s-13,2.65-17.97,7.94c-4.96,5.29-7.44,11.69-7.44,19.19s2.48,13.82,7.44,19.09,10.95,7.91,17.97,7.91,12.99-2.64,17.93-7.91,7.41-11.63,7.41-19.09Z"/>
        <path class="cls-1" d="M864.76,135.39h-23.55V6.77h23.55v128.63Z"/>
        <path class="cls-1" d="M938.13,126.42c-4.87,6.17-11.6,10.26-20.18,12.25-2.86.62-5.75.93-8.66.93-4.49,0-8.63-.46-12.42-1.39-3.79-.93-7.18-2.04-10.16-3.35-2.98-1.31-5.49-2.6-7.52-3.88-2.03-1.28-3.54-2.3-4.54-3.06l11.45-16.38c4.1,2.71,7.75,4.74,10.95,6.09,3.2,1.35,6.49,2.03,9.88,2.03,1.81,0,3.71-.21,5.69-.64,1.98-.43,3.67-1.28,5.08-2.56,1.41-1.28,2.11-3.21,2.11-5.77,0-2.23-.66-4.08-1.97-5.56-1.31-1.47-2.91-2.64-4.8-3.49-1.89-.85-3.78-1.45-5.69-1.78-3.96-.76-7.8-1.78-11.52-3.06-3.72-1.28-7.09-3.32-10.09-6.13-4.77-4.7-7.4-10.83-7.87-18.38-.19-2.94.3-6.36,1.47-10.26,1.17-3.89,3.3-7.6,6.41-11.11,6.16-6.6,15.05-9.9,26.7-9.9,4.44,0,8.92.89,13.46,2.67,4.53,1.78,8.61,4.24,12.24,7.37l-12.17,15.95c-1.96-1.57-3.75-2.81-5.37-3.74-1.62-.93-3.42-1.64-5.4-2.14-1.98-.5-3.97-.49-5.98.04-1.72.43-3.27,1.28-4.65,2.56-1.38,1.28-2.08,2.78-2.08,4.49s.62,3.07,1.86,4.24c1.24,1.16,2.91,2.18,5.01,3.06,2.1.88,4.44,1.77,7.01,2.67,3.05,1.04,6.19,2.27,9.41,3.67,3.22,1.4,6.21,3.19,8.98,5.38,2.77,2.18,5.02,4.95,6.76,8.3,1.74,3.35,2.61,7.54,2.61,12.57,0,6.84-2,12.94-6.01,18.3Z"/>
      </g>
      <path class="cls-1" d="M658.45,122.41c4.76,2.32,10.21,2.57,16.37.74,6.15-1.83,12.78-7.33,19.88-16.51,6.67-8.63,10.75-17.56,12.23-26.81l19.79,15.31c-1.95,10.1-9.09,22.04-21.42,35.79-9.55,9.93-21.01,15.58-34.37,16.97-13.36,1.38-25.13-1.87-35.32-9.75-11.08-8.57-17.42-19.96-19-34.16-1.59-14.2,2.04-27.01,10.88-38.44,7.66-9.9,15.53-15.74,23.62-17.53,8.09-1.79,15.67-1.39,22.75,1.2,7.07,2.59,13.06,5.76,17.95,9.51,4.9,3.75,8.11,6.46,9.63,8.11l-42.99,55.57ZM670.41,73.8c-4.37-3.38-8.93-4.6-13.69-3.66-4.75.94-9.33,4.26-13.74,9.95-3.91,5.06-5.67,11.13-5.29,18.22.25,4.68,1.67,8.77,4.27,12.26l28.45-36.77Z"/>
      <polyline class="cls-2" points="717.43 127.12 745.15 118.79 753.35 146.05"/>
      <path class="cls-3" d="M82.04,53.85c-8.06-8.06-19.18-13.04-31.48-13.04-13.96,0-26.6,5.66-35.75,14.81C5.66,64.77,0,77.41,0,91.37c0,24.59,19.93,44.52,44.52,44.52h30.97c-1.02-12.18-1.85-18.8-16.01-21.79h-16.05c-12.4,0-22.45-10.05-22.45-22.45,0-8.13,3.29-15.48,8.62-20.81,5.33-5.32,12.69-8.62,20.81-8.62,6.46,0,12.31,2.62,16.54,6.85,4.24,4.23,6.85,10.08,6.85,16.54v21.54c3.03,11.46,7.32,21.35,20.4,28.36.54-.37.88-.99.88-1.69v-48.5c0-12.3-4.99-23.42-13.04-31.48Z"/>
    </g>
  </g>
</svg>